<?xml version="1.0" encoding="UTF-8" standalone="no"?>
<!-- Created with Inkscape (http://www.inkscape.org/) -->

<svg
   xmlns:dc="http://purl.org/dc/elements/1.1/"
   xmlns:cc="http://creativecommons.org/ns#"
   xmlns:rdf="http://www.w3.org/1999/02/22-rdf-syntax-ns#"
   xmlns:svg="http://www.w3.org/2000/svg"
   xmlns="http://www.w3.org/2000/svg"
   xmlns:xlink="http://www.w3.org/1999/xlink"
   xmlns:sodipodi="http://sodipodi.sourceforge.net/DTD/sodipodi-0.dtd"
   xmlns:inkscape="http://www.inkscape.org/namespaces/inkscape"
   version="1.0"
   width="400"
   height="360"
   id="svg2"
   sodipodi:docname="P_anime.svg"
   inkscape:version="0.92.3 (2405546, 2018-03-11)">
  <metadata
     id="metadata7761">
    <rdf:RDF>
      <cc:Work
         rdf:about="">
        <dc:format>image/svg+xml</dc:format>
        <dc:type
           rdf:resource="http://purl.org/dc/dcmitype/StillImage" />
        <dc:title></dc:title>
      </cc:Work>
    </rdf:RDF>
  </metadata>
  <sodipodi:namedview
     pagecolor="#ffffff"
     bordercolor="#666666"
     borderopacity="1"
     objecttolerance="10"
     gridtolerance="10"
     guidetolerance="10"
     inkscape:pageopacity="0"
     inkscape:pageshadow="2"
     inkscape:window-width="1920"
     inkscape:window-height="996"
     id="namedview7759"
     showgrid="false"
     inkscape:zoom="0.65555556"
     inkscape:cx="-196.9715"
     inkscape:cy="213.70003"
     inkscape:window-x="-8"
     inkscape:window-y="-8"
     inkscape:window-maximized="1"
     inkscape:current-layer="svg2" />
  <defs
     id="defs4">
    <linearGradient
       x1="92.604424"
       y1="304.50995"
       x2="263.82959"
       y2="26.290426"
       id="linearGradient3199"
       xlink:href="#linearGradient2889"
       gradientUnits="userSpaceOnUse" />
    <linearGradient
       id="linearGradient2889">
      <stop
         style="stop-color:#a0a3e1;stop-opacity:1"
         offset="0"
         id="stop2891" />
      <stop
         style="stop-color:#dedcfa;stop-opacity:1"
         offset="1"
         id="stop2893" />
    </linearGradient>
  </defs>
  <g
     id="layer1">
    <path
       d="M 374 169 A 190 152 0 1 1  -6,169 A 190 152 0 1 1  374 169 z"
       transform="matrix(0.851641,-0.524127,0.524127,0.851641,-45.27941,132.512)"
       style="fill:url(#linearGradient3199);fill-opacity:1;stroke:none;stroke-width:3.125;stroke-linecap:butt;stroke-linejoin:round;stroke-miterlimit:4;stroke-dasharray:none;stroke-dashoffset:0;stroke-opacity:1"
       id="path2869" />
  </g>
  <path
     id="path3997"
     sodipodi:nodetypes="ccsccsccsccc"
     style="fill:#fae9c6;stroke-width:1.76665568"
     inkscape:connector-curvature="0"
     d="m 246.1701,269.91007 -62.53266,44.79679 c 0,0 2.15708,-5.93225 1.61788,-10.78596 -0.53929,-4.85371 -7.01079,-9.70725 -7.01079,-9.70725 l -8.08952,2.69645 c 0,0 -19.41378,-13.48241 -31.27864,-26.42564 -11.86451,-12.94305 -28.04389,-32.35806 -28.04389,-32.35806 l 5.39289,-81.97283 c 0,0 35.59281,-43.68233 78.73631,-36.67224 43.1435,7.0108 72.80565,55.54719 72.80565,55.54719 l -10.2466,84.66874 z" />
  <path
     id="path3985"
     style="fill:none;stroke:#000000;stroke-width:1.76665568px"
     inkscape:connector-curvature="0"
     d="m 115.66725,156.66744 c 0,0 -6.47161,76.57922 -4.31435,81.43399 2.15709,4.85371 22.65029,29.12156 30.20098,36.13341 7.55015,7.0108 25.34621,22.6503 29.12155,22.6503 3.77499,0 38.2905,-10.24661 51.77185,-15.6395 13.48241,-5.39289 35.59281,-21.03204 35.59281,-21.03204 l 9.16806,-81.97282 c 0,0 -13.48241,-51.23302 -65.25496,-57.16545 -51.77185,-5.93225 -86.287,35.59282 -86.287,35.59282 z" />
  <path
     id="path3987"
     style="fill:#ffffff;stroke-width:1.76665568"
     inkscape:connector-curvature="0"
     d="m 122.13321,197.65385 c 0,0 0.53929,7.0108 2.15708,11.32515 1.61789,4.31435 5.93226,9.70724 15.6395,9.70724 9.70724,0 16.71822,1.61789 18.87495,-10.2466 2.15726,-11.86451 0,-19.41378 -16.71822,-19.41378 -16.71821,0 -19.95437,8.6287 -19.95437,8.6287 z" />
  <path
     id="path3989"
     style="fill:#ffffff;stroke-width:1.76665568"
     inkscape:connector-curvature="0"
     d="m 199.24773,207.35279 c 0,0 -1.07858,7.55016 -0.53929,14.56095 0.53929,7.0108 1.07858,15.10032 10.78596,17.79729 9.70725,2.69645 15.6395,2.69645 20.49321,-6.47161 4.85371,-9.16806 7.0108,-20.49321 -5.93225,-24.26855 -12.94305,-3.77499 -24.80738,-1.61788 -24.80738,-1.61788 z" />
  <path
     id="path3991"
     style="fill:#d20b50;stroke-width:1.76665568"
     inkscape:connector-curvature="0"
     d="m 158.26132,267.20709 c 0,0 5.39289,-3.23581 11.32514,-3.23581 5.93226,0 9.16806,2.69645 9.16806,2.69645 0,0 -1.61788,11.8645 -7.55015,11.8645 -5.93227,0 -12.94305,-11.32514 -12.94305,-11.32514 z" />
  <path
     id="path3993"
     style="fill:#613f27;stroke-width:1.76665568"
     inkscape:connector-curvature="0"
     d="m 159.33898,266.67709 c 0,0 3.2358,-2.69645 8.6287,-2.69645 5.39289,0 10.78596,3.23581 10.78596,3.23581 l 1.0786,-5.39289 -23.72972,-6.47162 c 0,0 1.07859,4.31435 1.61788,7.0108 0.53929,2.69645 1.61789,4.31435 1.61789,4.31435 z" />
  <path
     id="path3995"
     style="fill:#c3a661;stroke-width:1.76665568"
     inkscape:connector-curvature="0"
     d="m 152.87302,237.5626 c 0,0 5.93225,-0.53929 8.08951,2.69645 2.15709,3.23581 -4.31435,6.47161 -8.08951,3.23581 -3.77499,-3.23581 0,-5.93226 0,-5.93226 z" />
  <path
     id="path4011"
     sodipodi:nodetypes="cccccccccc"
     style="fill:#986c0d;fill-opacity:0.35922002;stroke-width:1.76665568"
     inkscape:connector-curvature="0"
     d="m 236.47117,241.32558 c -29.66039,2.7074 -29.66039,7.00691 -29.66039,7.0108 l 12.94305,2.69644 c -6.89207,0.59705 -11.60481,5.5526 -15.63949,11.86451 l 14.56095,-1.0786 c -7.15655,2.79839 -14.21027,5.90576 -19.95438,12.94305 l 23.72972,1.61789 c -7.89218,1.37317 -8.8414,5.52362 -9.70724,9.70724 l 38.29049,-20.4932 z" />
  <path
     id="path4013"
     sodipodi:nodetypes="cccccccscccccccccc"
     style="fill:#986c0d;fill-opacity:0.35922002;stroke-width:1.76665568"
     inkscape:connector-curvature="0"
     d="m 120.50789,178.23831 c 2.39823,-6.79421 0.83529,-15.96527 9.70724,-18.87495 -0.89186,5.97094 0.20622,12.73794 6.47161,21.57263 -2.89466,-9.98161 5.71796,-17.08639 14.02159,-24.26855 0.95617,14.56095 3.24553,29.12155 11.32515,43.68233 -2.989,-13.84193 0.6584,-27.6835 9.16806,-41.52524 -4.51186,21.74046 0.59679,35.23594 5.93225,48.53709 -2.02494,0 10.88048,-43.80952 10.78597,-37.74989 -0.32998,21.1451 11.32514,28.58272 11.32514,28.58272 -6.23347,-10.91528 -0.56458,-19.99854 11.86451,-28.04389 6.47161,0.24848 12.94305,9.2389 19.41378,19.41378 -5.1763,-9.88709 -3.50487,-19.77418 -3.23581,-29.66039 l 26.42564,50.15359 c -8.08228,-15.99901 -2.78584,-31.99767 3.2358,-47.9965 l -0.53928,-8.6287 -49.61476,-10.78596 -85.20934,5.93225 c -7.08871,11.00856 -1.77832,19.95084 -1.0786,29.66038 z" />
  <path
     id="path4015"
     sodipodi:nodetypes="cscscc"
     style="fill:#644709;fill-opacity:0.69902996;stroke-width:1.76665568"
     inkscape:connector-curvature="0"
     d="m 180.90984,294.71392 c 0,0 0.53931,6.47161 0.53931,11.32514 0,4.85371 0.53929,11.32515 0.53929,11.32515 0,0 24.26855,-5.39289 31.81924,-12.40387 7.55015,-7.01079 28.04389,-32.35806 28.04389,-32.35806 -19.80951,7.47984 -39.77449,17.34449 -60.94079,22.11146 z" />
  <path
     id="path4017"
     style="fill:none;stroke:#372f1d;stroke-width:1.76665568px"
     inkscape:connector-curvature="0"
     d="m 179.30219,295.79158 c 27.50329,-8.08952 13.48241,-3.23581 27.50329,-8.08952 14.0216,-4.85371 38.2905,-16.71822 38.2905,-16.71822" />
  <path
     id="path4019"
     sodipodi:nodetypes="cscsccscscccsccsccsscsccscscscscsccsccccccsccssscscccscscscsccscccscscscscscscscccccscsccscscsccscscscscccscscsccsssc"
     style="fill:#d25600;stroke-width:1.76665568"
     inkscape:connector-curvature="0"
     d="m 242.38946,65.525672 c 0,0 -34.51515,-18.874949 -80.8934,-11.864506 -46.38001,7.010796 -66.873214,34.515152 -66.873214,34.515152 0,0 -14.560953,18.336122 -26.425636,32.358062 -11.864507,14.0216 -14.560953,24.26855 -14.560953,24.26855 l 2.696446,19.95438 c 0,0 3.77499,-15.10031 5.932254,-19.41378 2.157263,-4.31435 7.550156,-7.0108 7.550156,-7.0108 0,0 7.010797,18.33612 1.617886,29.12156 -5.392894,10.78596 -12.94305,28.04389 -12.94305,28.04389 l 22.111463,-14.02159 11.864506,-14.56096 c 0,0 -3.77499,18.87495 -10.246603,29.12156 -6.471613,10.2466 -7.550156,16.17885 -7.550156,16.17885 l 20.493206,-22.65029 c 0,0 -6.471613,32.89689 -9.707243,42.06584 -3.235807,9.16806 -8.6287,24.26855 -8.6287,24.26855 l 15.639496,-23.72972 c 0,0 7.550152,23.18912 7.550152,30.73981 0,7.55015 2.69645,19.95437 2.15709,19.95437 -0.53929,0 7.0108,-23.72972 7.0108,-23.72972 0,0 8.08951,15.6395 8.08951,18.87495 0,3.23581 -3.2358,19.95438 -3.2358,19.95438 l 11.32514,-15.6395 c 0,0 -0.53929,13.48241 -0.53929,16.17886 0,2.69645 1.61789,7.0108 1.61789,7.0108 0,0 3.23581,-4.85371 5.39289,-7.0108 2.15709,-2.15726 7.55016,-13.48241 7.55016,-13.48241 0,0 -1.0786,17.2574 0.53929,20.49321 1.61788,3.2358 4.31435,6.47161 4.31435,6.47161 0,0 -1.0786,-7.0108 0.53929,-9.70724 1.61788,-2.69645 11.8645,-4.31435 11.8645,-4.31435 0,0 -3.2358,7.55015 -0.53928,10.2466 2.69651,2.69645 5.39289,7.0108 5.39289,7.0108 l 18.87495,-3.77499 c 0,0 4.31435,-1.61789 2.69644,-7.0108 -1.61788,-5.39289 -2.15708,-8.08934 -2.15708,-8.08934 l -10.2466,-0.53931 c -23.57956,-12.21713 -41.33445,-34.62468 -59.32254,-56.62661 l 4.85371,-81.434 2.15709,-3.77499 4.31435,14.0216 c 0,0 4.85371,3.2358 4.85371,8.08951 0,4.85371 -1.61789,11.86451 -1.61789,11.86451 l 11.86451,-27.5033 c 0,0 1.0786,14.56096 4.31435,18.33612 3.23581,3.77499 2.15709,5.3929 3.23581,5.3929 1.07858,0 1.61788,-8.08952 5.93225,-15.10032 4.31437,-7.01079 9.70724,-12.94305 9.70724,-12.94305 0,0 1.61789,30.20098 3.77499,36.13341 2.15709,5.93225 11.32515,23.18912 11.32515,23.18912 l -0.53931,-21.57263 7.0108,13.48241 c 0,0 2.15726,-17.2574 7.55016,-24.80738 5.39289,-7.55015 14.02159,-20.4932 14.02159,-20.4932 0,0 -4.85371,28.58272 -2.15709,32.35806 2.69645,3.77499 6.47161,11.86451 6.47161,11.86451 0,0 0.53929,-9.16806 8.08934,-19.95438 7.55016,-10.78596 14.56096,-22.65029 14.56096,-22.65029 0,0 4.31435,15.10031 5.39289,19.95438 1.0786,4.85371 10.2466,18.87494 10.2466,18.87494 l -2.18888,-10.80345 c 0,0 5.19414,18.07466 3.26743,22.66796 -3.26549,7.78406 -11.32515,26.96447 -11.32515,26.96447 l -20.49321,10.2466 16.17886,-2.15709 c 0,0 -16.17886,9.16806 -18.87495,11.32515 -2.69645,2.15726 -2.69645,4.31435 -2.69645,4.31435 0,0 1.61789,-3.23581 7.55016,-4.85371 5.93225,-1.61789 9.70724,0 9.70724,0 0,0 -21.03203,8.6287 -23.18912,14.02159 -2.15709,5.3929 -7.0108,11.86451 -7.0108,11.86451 0,0 10.78597,-8.6287 15.6395,-10.2466 4.85371,-1.61789 16.17886,-4.85371 16.17886,-4.85371 0,0 -4.85371,10.2466 -9.70725,14.02159 -4.85371,3.77499 -14.56095,14.02159 -14.56095,14.02159 0,0 17.79729,-8.08951 24.80738,-12.40369 7.0108,-4.31435 17.2574,-13.48241 17.2574,-13.48241 0,0 2.15726,17.79729 0.53931,26.42564 -1.61789,8.6287 -4.85371,16.71822 -4.85371,16.71822 l 8.08934,-5.3929 7.01079,-3.77499 4.43466,2.30849 2.03696,6.8594 c 0,0 13.04975,1.32094 19.41378,3.77498 14.33393,5.52681 24.22438,15.60841 24.22438,15.60841 0,0 0.4947,-9.4668 1.57328,-17.01678 1.07859,-7.55016 5.48211,-15.30984 5.48211,-15.30984 l 1.07859,11.32515 c 0,0 3.23581,-8.6287 4.85371,-12.94305 1.61787,-4.31435 -2.15726,-15.10032 -2.15726,-15.10032 0,0 2.69645,0.53929 4.85371,4.85371 2.15709,4.31435 4.85371,12.94305 4.85371,12.94305 v -8.08951 c 0,-2.69645 -6.47161,-25.88681 -6.47161,-25.88681 l 8.6287,14.56095 c 0,0 -3.23581,-12.40386 -5.93226,-22.11146 -2.69644,-9.70724 0,-24.80738 0,-24.80738 0,0 3.23581,5.39289 5.3929,10.2466 2.15708,4.85371 0.53928,21.03204 0.53928,21.03204 0,0 6.93519,-11.85108 4.31435,-24.80738 -1.6038,-7.92893 -2.69644,-13.48241 -2.69644,-13.48241 0,0 -3.01957,-7.50069 -3.94,-14.47174 -0.49805,-3.77198 7.79078,6.08366 7.79078,6.08366 l -10.86158,-26.6659 5.39289,-9.16806 c 0,0 -3.59602,1.30971 -2.5173,6.70269 1.07859,5.39289 9.52828,11.09407 9.52828,11.09407 0,0 0,-8.6287 -0.53929,-13.48241 -0.53929,-4.85371 -9.70724,-26.42564 -9.70724,-26.42564 0,0 4.31435,5.93226 7.55015,11.32515 3.23581,5.39289 8.6287,8.08952 8.6287,8.08952 l -14.56095,-25.34621 c 0,0 -7.55016,-14.56096 -10.2466,-23.18913 -2.69645,-8.6287 -4.85371,-23.72972 -12.94305,-37.211066 -8.08952,-13.482409 -17.79729,-24.268549 -32.8969,-30.739809 -9.9756,-4.275307 -30.73981,-2.157087 -30.73981,-2.157087 z" />
  <path
     id="path4100"
     sodipodi:nodetypes="csccscc"
     style="fill:#800000;stroke-width:1.76665568;stroke-opacity:0"
     inkscape:connector-curvature="0"
     d="m 245.83444,191.18789 c 3.00049,15.82641 7.63142,17.21589 11.7336,21.1557 4.10235,3.93947 6.61506,5.21058 6.61506,5.21058 l -5.12083,-16.64596 c 0,0 -4.27689,-7.55016 -5.41462,-11.14407 -1.13774,-3.5939 -4.00483,-20.48967 -4.00483,-20.48967 -2.24507,4.57847 -3.82234,15.63402 -3.80838,21.9136 z" />
  <path
     id="path4120"
     sodipodi:nodetypes="cscsccscccscccc"
     style="fill:#800000;stroke-width:1.76665568;stroke-opacity:0"
     inkscape:connector-curvature="0"
     d="m 304.15175,199.50884 c 0,0 -0.73933,5.17524 -0.55451,7.39328 0.18483,2.21803 0.36966,3.97391 0.36966,3.97391 0,0 -7.67047,-9.98089 -8.22502,-13.03067 -0.5545,-3.04978 -0.92415,-4.4359 -0.92415,-4.4359 l -0.92416,7.57807 c 0,0 -4.02214,-8.42677 -6.00698,-9.7961 -6.6345,-4.57688 -8.40981,-9.42635 -9.05676,-12.56852 -0.83174,2.86481 -8.13263,7.30088 -8.13263,7.30088 l 4.71327,-23.47356 c 0,0 2.31043,5.08285 3.32696,7.02352 1.01657,1.94067 5.91459,8.40981 5.91459,8.40981 l 9.14915,12.47612 3.41937,-18.66825 z" />
  <path
     id="path4122"
     sodipodi:nodetypes="cscccsc"
     style="fill:#800000;stroke-width:1.76665568;stroke-opacity:0"
     inkscape:connector-curvature="0"
     d="m 311.55403,137.78189 c 0,0 -3.88152,8.13262 -9.7961,-12.38373 -1.16866,-4.05376 1.29382,29.57382 1.29382,29.57382 l 1.47866,19.22298 6.09938,20.51617 c 0,0 6.28435,-27.72412 3.51176,-40.29388 -1.10123,-4.99222 -2.58762,-16.63483 -2.58762,-16.63483 z" />
  <path
     id="path4124"
     style="fill:#800000;stroke-width:1.76665568;stroke-opacity:0"
     inkscape:connector-curvature="0"
     d="m 108.79496,161.24308 c 0,0 -0.36967,10.07418 -4.4359,21.40833 -4.06631,11.33345 -8.871966,28.96256 -8.871966,28.96256 0,0 10.350486,-11.33345 11.829176,-15.95079 1.47865,-4.61733 -8.871971,36.93901 -8.871971,36.93901 l 10.350481,-10.49394 c 0,0 -2.95738,12.17297 -5.545,19.72825 -2.58762,7.55563 -2.58762,9.23466 -2.58762,9.23466 l 10.35048,-10.49393 3.32697,-71.35876 z" />
  <path
     id="path4126"
     sodipodi:nodetypes="cccccccccccccccccccccccccccccccccccccccccccccccccccccccccccccc"
     style="fill:#ea8138;stroke-width:1.76665568"
     inkscape:connector-curvature="0"
     d="M 84.945106,101.54778 C 125.91385,82.192302 127.50914,84.903235 127.50914,84.903235 l 0.35321,0.390166 -11.78713,11.209077 c 7.7959,-5.237957 15.34818,-9.394545 22.23513,-10.595164 -4.90318,5.39095 -9.23148,10.880832 -7.45264,17.422586 5.38795,-8.295513 17.48937,-13.706779 30.26458,-18.829021 -5.37876,6.508007 -10.75858,13.01619 -9.28342,19.677011 8.50556,-3.78365 15.17186,-8.697069 18.52162,-15.647976 2.00409,7.719402 -6.32269,16.460636 -12.23851,24.962846 10.83525,-14.399658 27.22063,-26.415037 45.52142,-37.608567 -2.41219,10.928355 -4.36452,22.088496 -12.91355,29.918317 l 13.97107,-13.072372 c 6.1923,6.637149 4.9507,13.109472 3.09112,19.567482 l 15.08494,-18.018125 c 7.43444,10.105625 2.41237,19.934945 1.21662,29.849415 9.38024,-1.38389 12.97203,-7.32703 14.39966,-14.97453 5.27842,7.36413 1.96152,13.2478 0.89676,19.51978 6.16439,-6.61807 8.73046,-13.31599 10.24678,-20.03741 2.55158,5.74199 6.4785,10.34713 8.52923,18.92442 7.95225,-11.07976 3.78701,-19.57101 3.8787,-28.971388 6.91045,7.816918 19.86957,8.554858 13.51597,32.034768 l 5.74093,-25.48931 c 4.28325,8.37907 9.61202,16.78129 7.15831,25.01055 l 5.57998,-22.81636 4.43925,25.33384 1.44811,-24.05478 c 3.00367,7.26077 7.23446,13.65448 7.67241,22.72802 l 1.19105,-22.91352 c 4.40727,10.42097 8.0351,20.82533 6.66506,31.11787 l -6.81099,22.4065 -2.19242,-15.72465 -6.92794,17.05193 -0.81109,-19.89961 -9.20816,17.38372 -2.21345,-19.54805 -7.81621,15.12046 -3.93752,-13.85164 c -10.45913,9.6735 -18.04639,19.00744 -21.26347,27.82129 -4.11366,-9.47705 -4.49826,-20.15577 0.26095,-32.4941 -13.54583,7.91038 -20.83417,18.50925 -26.9574,29.60738 -1.8329,-9.03114 -9.65954,-15.5107 -3.40063,-27.98559 -11.70798,7.16308 -15.29217,16.64773 -19.51801,25.94864 l -1.09961,-24.49468 -5.27912,13.64741 0.32374,-21.02143 c -9.02902,4.83004 -17.93509,10.18919 -24.61304,25.07238 -2.77807,-3.51565 -5.19892,-7.456 9.30621,-31.52774 -11.88518,9.68569 -20.48791,4.80124 -37.2782,36.26061 -1.86595,-7.00409 -6.48946,-6.56825 -2.87612,-28.35659 -14.1578,4.641 -23.66435,12.49096 -28.65869,23.45235 -2.36343,-12.15989 -4.06348,-23.15732 5.24962,-35.05928 -9.04175,9.33253 -19.59221,16.99876 -24.227917,31.19737 -0.947387,-9.64488 4.364169,-21.17337 9.563257,-32.669 l -13.929194,20.71934 10.482804,-25.00171 -22.622025,20.14518 8.480831,-21.9878 15.737194,-11.12145 -3.511054,-0.0776 -31.515371,14.59523 z" />
  <path
     id="path3858"
     sodipodi:nodetypes="ccsscssc"
     style="fill:none;stroke-width:1.76665568"
     inkscape:connector-curvature="0"
     d="m 195.29042,130.5386 c -30.35114,-2.33481 -75.97149,9.30763 -75.97149,9.30763 0,0 -9.44737,89.02178 -5.83686,99.22598 4.78305,13.51633 51.45738,56.06482 57.29441,56.06482 15.10844,0 82.88266,-16.34316 82.88266,-16.34316 0,0 18.67708,-47.86223 24.51411,-63.0378 5.83685,-15.17575 -11.67371,-61.87005 -25.68187,-67.70708 C 238.48303,142.21213 195.2906,130.5386 195.2906,130.5386 Z" />
  <path
     id="path3860"
     sodipodi:nodetypes="ccsc"
     style="fill:none;stroke:#000000;stroke-width:1.76665568px"
     inkscape:connector-curvature="0"
     d="m 157.28966,255.79449 21.65566,6.93748 c 0,0 -0.58342,16.66274 -11.54068,14.977 -10.95725,-1.68574 -10.11445,-21.91536 -10.11445,-21.91536 z" />
  <path
     id="path3862"
     style="fill:none;stroke:#000000;stroke-width:1.76665568px"
     inkscape:connector-curvature="0"
     d="m 148.86271,233.03997 c 0,0 -1.68574,6.74297 0.84285,8.42871 2.5286,1.68574 5.9001,2.52861 5.9001,2.52861" />
  <path
     id="path3864"
     style="fill:none;stroke:#000000;stroke-width:1.76665568px"
     inkscape:connector-curvature="0"
     d="m 200.87305,186.71825 c 0,0 14.42651,0.18485 21.11331,1.05844 6.68608,0.8736 22.52839,9.74381 22.52839,9.74381" />
  <path
     id="path3866"
     style="fill:none;stroke:#000000;stroke-width:1.76665568px"
     d="m 155.59367,178.7683 c -7.54875,-10.90945 -20.18228,-9.10569 -32.02947,-9.27158"
     sodipodi:nodetypes="cc"
     inkscape:connector-curvature="0" />
  <path
     id="path3946"
     style="fill:#ffffff;stroke-width:1.76665568"
     inkscape:connector-curvature="0"
     d="m 122.09788,196.92952 c 0,0 -0.42773,6.8435 1.28313,10.69286 1.71087,3.84955 2.56625,6.8435 2.56625,6.8435 0,0 6.84349,2.13853 12.83157,3.42166 5.98808,1.28314 15.82553,0 15.82553,0 0,0 2.99395,-5.98808 3.84936,-11.12057 0.85545,-5.13267 0,-14.1147 0,-14.1147 0,0 -14.11469,-5.13266 -21.38536,-5.13266 -7.2712,0 -13.25928,2.56624 -13.25928,2.56624 z" />
  <path
     id="path3868"
     sodipodi:nodetypes="ccsscsc"
     style="fill:#000000;stroke-width:1.76665568"
     inkscape:connector-curvature="0"
     d="m 121.72688,198.78451 -0.85229,-12.7844 c 0,0 9.37529,-2.55688 16.1937,-1.7046 6.8184,0.85231 18.75128,1.7046 21.30763,5.966 2.55688,4.26153 1.70459,5.966 1.70459,5.966 0,0 -15.29888,-7.67065 -23.86398,-7.67065 -16.1937,2e-5 -14.48905,10.22753 -14.48905,10.22753 z" />
  <path
     id="path3870"
     sodipodi:nodetypes="cssccc"
     style="fill:#000000;stroke:#000000;stroke-width:1.76665568px"
     inkscape:connector-curvature="0"
     d="m 142.09642,189.03257 c 0,0 -7.05797,1.7921 -7.71375,7.72205 -0.65566,5.92996 -3.09518,20.23705 6.2234,21.26701 9.3184,1.03031 14.02247,-2.73708 14.86534,-10.36126 0.89287,-9.48041 1.43301,-16.81274 -5.75081,-17.78493 -6.77707,-0.74931 -7.62418,-0.84297 -7.62418,-0.84297 z" />
  <path
     id="path3872"
     sodipodi:nodetypes="ccsscssc"
     style="fill:#000000;stroke-width:1.76665568"
     inkscape:connector-curvature="0"
     d="m 198.55873,209.06645 -1.65198,-7.09224 c 0,0 11.31773,-1.09987 18.70359,1.58414 7.38515,2.68408 32.0754,11.06739 26.3426,15.47537 -5.73315,4.40816 -10.33246,9.58924 -10.33246,9.58924 0,0 2.30654,-8.53242 -3.81351,-13.15664 -2.68602,-2.02954 -7.0539,-5.21941 -16.35022,-6.43399 -9.29632,-1.21461 -12.89747,0.0339 -12.89747,0.0339 z" />
  <path
     id="path3948"
     style="fill:#ffffff;stroke-width:1.76665568"
     d="m 199.08873,208.04179 c 0,0 -1.71086,4.70495 -1.71086,10.26515 0,5.56037 -2.37368,8.82268 0,12.83157 2.37367,4.0089 4.70495,5.13267 13.25928,7.27121 8.55432,2.13853 13.68699,2.13853 13.68699,2.13853 0,0 3.84936,-3.84954 5.56037,-7.2712 1.71086,-3.42166 4.27725,-11.12057 4.27725,-11.12057 0,0 -5.13267,-11.54827 -14.1147,-12.83157 -8.98203,-1.28314 -20.95783,-1.28314 -20.95783,-1.28314 z"
     sodipodi:nodetypes="cszscscsc"
     inkscape:connector-curvature="0" />
  <path
     id="path3874"
     sodipodi:nodetypes="cssssc"
     style="fill:#000000;stroke:#000000;stroke-width:1.76665568px"
     inkscape:connector-curvature="0"
     d="m 215.46563,211.27477 c 0,0 -5.51232,2.718 -7.35123,10.21356 -1.83891,7.49557 -4.2451,13.76049 0.54777,15.54322 14.88054,5.53528 14.80705,0.60518 17.27171,-7.19824 2.43533,-7.71004 3.67782,-14.99113 -1.17204,-17.34397 -4.84986,-2.35283 -9.29632,-1.21463 -9.29632,-1.21463 z" />
  <path
     id="path3876"
     style="fill:none;stroke:#000000;stroke-width:1.76665568px"
     inkscape:connector-curvature="0"
     d="m 201.38538,233.4993 c 0,0 5.36375,4.99857 10.4344,5.66107 5.07066,0.66251 10.14131,1.32504 10.14131,1.32504" />
  <path
     id="path3878"
     style="fill:#cdd3f5;stroke-width:1.76665568"
     inkscape:connector-curvature="0"
     d="m 147.83805,209.73778 c -2.11433,3.47342 -9.21223,0.15105 -9.51433,-1.96329 -0.30204,-2.11433 -4.37954,-0.30204 -2.26538,3.77552 2.11434,4.07762 9.96747,4.53059 12.53478,1.66122 2.5673,-2.86936 4.37954,-4.37954 2.5673,-4.98373 -1.81223,-0.60409 -3.32237,1.51021 -3.32237,1.51021 z" />
  <path
     id="path3880"
     style="fill:#b2d4e9;stroke-width:1.76665568"
     inkscape:connector-curvature="0"
     d="m 211.68499,228.81766 c 0.56066,-3.12522 -1.4508,-5.21552 -2.51254,-2.91746 -1.0618,2.29807 -2.08519,7.79979 3.65715,9.31152 5.74234,1.51179 8.90059,-0.51242 9.57192,-3.31849 0.67124,-2.80616 -0.0572,-6.55659 -2.13483,-3.47731 -2.07776,3.07928 -3.43226,4.12073 -5.37893,3.86633 -1.94668,-0.25437 -3.2026,-3.46459 -3.2026,-3.46459 z" />
  <path
     id="path3882"
     style="fill:#ffffff;stroke:#000000;stroke-width:1.76665568px"
     inkscape:connector-curvature="0"
     d="m 222.62058,218.35906 c 0,0 -3.51635,4.71767 -2.13571,6.7942 1.38073,2.07653 3.39269,3.32361 4.55674,0.62697 1.16398,-2.69662 2.94448,-8.24622 2.94448,-8.24622 z" />
  <path
     id="path3882-6"
     style="fill:#ffffff;stroke:#000000;stroke-width:1.76665568px"
     inkscape:connector-curvature="0"
     d="m 148.77438,196.52319 c 0,0 -2.31839,5.40809 -0.49126,7.10514 1.82725,1.69701 4.07462,2.4401 4.57723,-0.45371 0.50256,-2.89379 0.93893,-8.70573 0.93893,-8.70573 z" />
  <path
     id="path3902"
     style="fill:none;stroke:#000000;stroke-width:1.76665568px"
     inkscape:connector-curvature="0"
     d="m 129.41183,215.32041 c 0,0 5.43671,2.8694 11.93058,3.1715 6.49387,0.30204 12.53477,-0.15105 12.53477,-0.15105" />
  <path
     id="path3906"
     sodipodi:nodetypes="cccccccccccccccssccccccccc"
     style="fill:none;stroke:#961b0b;stroke-width:1.76665568px"
     inkscape:connector-curvature="0"
     d="m 245.51644,192.14189 c 0,0 4.23432,15.61706 0.97815,23.80392 -4.91537,12.3574 -6.8571,27.94142 -15.94513,29.27525 -9.08803,1.33439 -19.80421,8.24127 -19.80421,8.24127 l 26.0405,-5.02349 c -12.93845,4.90106 -24.06361,10.08142 -29.29645,16.16861 7.26343,-2.80898 14.28235,-6.79667 22.2528,-6.20078 -24.06185,9.49224 -25.22431,19.33428 -35.23065,29.04028 10.59357,-6.349 18.76012,-14.72118 34.48159,-16.79665 -1.79016,10.86281 -16.66504,19.84661 -26.25781,29.58972 16.24157,-8.70873 35.89138,-16.35818 44.14519,-27.54923 5.11006,15.36336 2.2009,30.68857 -5.38883,45.99311 4.55179,-4.13309 5.47381,-8.48843 16.18928,-12.24416 5.26693,2.08306 7.54928,5.50684 5.77485,10.75257 27.25064,-0.17859 36.23522,8.63241 45.02852,19.83425 0.63198,-8.98486 1.12147,-26.6394 7.33975,-34.59112 l 0.47464,13.26423 c 2.91622,-9.90547 9.28184,-19.59928 3.12681,-30.05965 7.72753,7.86868 6.26014,13.21176 7.81975,19.38551 3.05013,-8.73717 -4.71751,-24.69784 -5.44236,-37.20223 l 9.04386,20.40664 c -2.42986,-16.82899 -10.57255,-29.97485 -7.19877,-50.54579 9.16188,7.49274 6.21881,20.9543 7.01256,32.57183 11.84596,-20.02857 1.67501,-38.85759 -4.1739,-57.92334 l 13.17767,15.93259 -14.76112,-32.10014" />
  <path
     id="path3904"
     sodipodi:nodetypes="cssssccsccccccccccccccccccsccccccccccccccccccccccccccsc"
     style="fill:none;stroke:#961b0b;stroke-width:1.76665568px"
     inkscape:connector-curvature="0"
     d="m 243.34346,64.960342 c 0,0 -18.47216,-6.193895 -38.08027,-10.647104 -19.38728,-4.403212 -52.20291,-2.225456 -65.15603,4.445436 -23.54245,12.125795 -38.04846,20.90307 -49.247291,32.615998 -11.19989,11.711868 -34.28902,46.062018 -35.40908,48.954028 -3.888939,10.04132 0.854196,24.71551 0.854196,24.71551 3.045537,-9.20887 2.662703,-19.50387 12.319773,-26.6182 0,0 6.943134,16.08063 2.239943,29.48549 -5.644465,16.08681 -11.199891,25.87974 -11.199891,25.87974 19.571012,-9.33448 28.174625,-18.09056 32.479965,-26.61821 -1.735067,16.46488 -9.325822,32.00121 -21.279367,46.84818 8.088103,-8.02132 19.20708,-14.31362 23.519487,-24.48938 -1.871419,25.25258 -9.452668,50.08822 -22.399428,74.5299 L 93.264835,232.1206 c 5.731031,19.10638 10.507005,38.12266 7.839885,56.43051 l 7.83989,-28.74702 c 11.01916,16.94029 8.58436,29.20635 3.36,41.52348 5.69181,-6.95073 11.59598,-13.83415 12.31978,-22.3588 -0.19725,9.05217 -1.57492,18.32906 2.23994,26.61821 6.91893,-6.71612 11.36101,-13.76879 12.31995,-21.29351 1.11607,9.30728 -3.43562,19.81128 4.47989,27.6835 -0.68176,-5.87819 -1.91153,-11.90125 12.31995,-13.8414 -1.85393,6.37763 0.38696,9.52475 4.47988,15.90061 l 21.0338,-2.41519 c 0.33471,-5.15422 -1.03474,-11.53785 -2.05744,-15.60505 l -9.37865,0.67501 c 0,2.05356 -44.56742,-31.83867 -58.2431,-57.33858 -2.5159,-4.69153 2.9466,-68.89957 2.9466,-68.89957 3.18299,-6.49582 5.07013,-5.36622 8.73982,-3.07452 7.01327,9.2276 2.0313,10.31745 2.23995,19.54452 4.15835,-9.92101 10.47114,-19.15938 12.31977,-29.81232 -1.5072,16.40905 4.79647,19.20532 7.83989,27.6835 2.34046,-17.16766 9.44701,-23.76329 16.79983,-29.81232 -0.42889,25.65184 1.03265,44.00739 13.43984,61.75345 0.31572,-9.80246 -2.89449,-18.26899 1.11999,-29.81231 -2.28994,8.80307 2.95826,14.95527 5.59994,19.16468 -1.48296,-16.07074 12.89341,-29.98722 21.27937,-44.71759 -2.93654,15.97622 -3.55133,31.98883 3.36,46.84817 1.36031,-19.74237 16.7426,-32.64956 23.51949,-44.71758 6.16669,6.23876 -1.268,15.75927 14.55989,38.32936 -1.60366,-12.22667 -0.0451,-24.95401 5.59995,-38.32936 -2.81694,21.01966 7.76215,41.31677 20.15931,54.29992 -6.17129,-27.99089 2.30566,-42.40327 4.0262,-59.21829 4.93781,18.55341 6.79986,12.67451 18.37322,32.0171 3.64991,-11.37921 2.91304,-17.64253 1.48852,-35.20062 3.26778,26.31787 11.91803,51.09345 17.55119,63.12791 -3.85201,-21.1133 -0.73964,-37.26054 5.59995,-51.10582 -5.22029,29.61622 5.26799,46.59555 10.07983,68.14168 0.0256,-16.83322 -8.79406,-37.54673 1.11999,-50.04229 -4.87951,7.48426 2.026,13.2448 7.83988,19.16468 1.91241,-9.81059 -5.81371,-27.63933 -10.07983,-42.58877 5.41516,13.12043 11.92387,20.00385 19.03925,23.42409 -9.2737,-8.31671 -17.24415,-27.78419 -25.7596,-42.58877 0,0 -8.15171,-60.15109 -45.91892,-74.775466 -15.44163,-5.97907 -31.35991,-3.194114 -31.35991,-3.194114 z" />
  <path
     id="path3840"
     style="fill:none;stroke:#9a762f;stroke-width:1.76665568px"
     d="m 180.85684,294.48425 c 4.42424,16.11402 0.97371,25.44161 -2.91604,33.24139"
     sodipodi:nodetypes="ccc"
     inkscape:connector-curvature="0" />
  <path
     id="path3910"
     style="fill:none;stroke:#961b0b;stroke-width:1.76665568px"
     d="m 162.67796,154.97145 c 2.96197,-21.7069 11.85355,-43.88549 34.90558,-62.500745"
     sodipodi:nodetypes="cc"
     inkscape:connector-curvature="0" />
  <path
     id="path3912"
     style="fill:none;stroke:#961b0b;stroke-width:1.76665568px"
     d="m 177.2352,187.79591 c 0.83188,-21.6327 8.38101,-35.20415 16.85672,-47.66437"
     sodipodi:nodetypes="cc"
     inkscape:connector-curvature="0" />
  <path
     id="path3914"
     style="fill:none;stroke:#961b0b;stroke-width:1.76665568px"
     inkscape:connector-curvature="0"
     d="m 138.15678,157.33877 c 0,0 -1.03836,-9.69134 2.76887,-21.45957 3.80732,-11.76804 8.65291,-23.53539 8.65291,-23.53539" />
  <path
     id="path3916"
     style="fill:none;stroke:#961b0b;stroke-width:1.76665568px"
     inkscape:connector-curvature="0"
     d="m 203.92937,161.49041 c 0,0 9.34525,-27.34253 10.03743,-33.91979 0.69224,-6.5762 0.69224,-20.42077 0.69224,-20.42077" />
  <path
     id="path3918"
     style="fill:none;stroke:#961b0b;stroke-width:1.76665568px"
     d="m 207.03868,205.09147 c 0,0 7.24453,-42.40857 18.34495,-62.99364 9.33431,-17.31146 8.30682,-30.11265 7.96073,-34.26605 -0.3461,-4.15341 -3.80732,-11.075875 -3.80732,-11.075875"
     sodipodi:nodetypes="cssc"
     inkscape:connector-curvature="0" />
  <path
     id="path3920"
     style="fill:none;stroke:#961b0b;stroke-width:1.76665568px"
     d="m 121.85054,169.14003 c 0,0 -4.81502,-23.19619 -1.69295,-30.14975 7.61464,-16.95989 -7.21873,7.52719 -6.18029,17.21854 0.43159,4.02815 4.27725,18.91558 4.27725,18.91558 0,0 -15.28387,-18.32022 -14.2456,-24.89748 1.03835,-6.5762 1.9578,-10.89196 5.41886,-19.19825 3.46123,-8.30681 17.65207,-17.65207 17.65207,-17.65207 0,0 -17.52222,5.24591 -30.72921,21.9136 -3.673054,4.6357 8.16619,-19.16645 15.15349,-24.33568 6.48946,-4.80177 19.38198,-11.421962 19.38198,-11.421962"
     sodipodi:nodetypes="csscsscssc"
     inkscape:connector-curvature="0" />
  <path
     id="path3922"
     style="fill:none;stroke:#961b0b;stroke-width:1.76665568px"
     d="m 226.77223,68.387654 c -22.1521,-5.537935 -14.19084,-11.075871 -55.37936,-4.845583 -12.15265,1.838205 -29.07385,6.922464 -40.14902,12.806487 -11.07587,5.884024 -27.34253,18.691218 -27.34253,18.691218"
     sodipodi:nodetypes="cssc"
     inkscape:connector-curvature="0" />
  <path
     id="path3924"
     style="fill:none;stroke:#961b0b;stroke-width:1.76665568px"
     inkscape:connector-curvature="0"
     d="m 242.0008,73.228291 c 0,0 11.42196,-4.845583 24.22791,0.692246 12.80631,5.537936 20.76704,13.152575 26.99804,22.844625 6.23011,9.691348 5.88402,9.691348 5.88402,9.691348" />
  <path
     id="path3926"
     style="fill:none;stroke:#961b0b;stroke-width:1.23665893"
     inkscape:connector-curvature="0"
     d="m 250.30408,165.97772 c 0,0 8.99899,-20.76704 8.99899,-28.38133 0,-7.61464 -6.23011,-21.45957 -6.23011,-21.45957" />
  <path
     id="path3928"
     style="fill:none;stroke:#961b0b;stroke-width:1.23665893"
     d="m 274.52493,161.13708 c 0,0 3.49338,-28.26649 -3.46123,-42.91913 -4.92827,-10.38352 -17.30599,-20.074514 -17.30599,-20.074514"
     sodipodi:nodetypes="csc"
     inkscape:connector-curvature="0" />
  <path
     id="path3930"
     style="fill:none;stroke:#961b0b;stroke-width:1.23665893"
     inkscape:connector-curvature="0"
     d="m 295.9898,156.98544 c 0,0 -2.07671,-29.07386 -4.15341,-32.53473 l -2.07671,-3.46124" />
  <path
     id="path3932"
     style="fill:none;stroke:#961b0b;stroke-width:1.23665893"
     inkscape:connector-curvature="0"
     d="m 288.37551,179.8283 c 0,0 -2.76888,-20.76704 -2.76888,-31.84221 0,-11.07587 2.76888,-20.76703 0,-27.68879 -2.76888,-6.92246 -11.07587,-17.99869 -11.07587,-17.99869" />
  <path
     id="path3934"
     style="fill:none;stroke:#961b0b;stroke-width:1.23665893"
     inkscape:connector-curvature="0"
     d="m 309.84038,194.36787 c 0,0 -6.23011,-22.15209 -6.23011,-33.91979 0,-11.76804 -2.76888,-35.30484 -2.76888,-35.30484" />
  <path
     id="path3936"
     sodipodi:nodetypes="csc"
     style="fill:none;stroke:#962613;stroke-width:0.88332784"
     inkscape:connector-curvature="0"
     d="m 207.40968,297.3109 c 0,0 23.14142,-18.86612 34.94092,-25.03881 12.66091,-6.62337 16.68058,-16.7433 16.68058,-16.7433" />
  <path
     id="path3938"
     style="fill:none;stroke:#962613;stroke-width:0.88332784"
     d="m 229.54587,270.3694 c 0,0 15.92146,-9.53976 20.76704,-18.53928 4.84559,-8.999 10.38352,-18.69122 10.38352,-18.69122"
     sodipodi:nodetypes="csc"
     inkscape:connector-curvature="0" />
  <path
     id="path3940"
     sodipodi:nodetypes="csc"
     style="fill:none;stroke:#962613;stroke-width:0.88332784"
     inkscape:connector-curvature="0"
     d="m 243.62612,314.04113 c 0,0 14.68056,-11.58255 20.21938,-18.50572 5.53793,-6.92229 13.15257,-22.84462 13.15257,-22.84462" />
  <path
     id="path3942"
     style="fill:none;stroke:#962613;stroke-width:1.41332459"
     inkscape:connector-curvature="0"
     d="m 314.68101,303.74153 c 0,0 -2.76888,-22.1521 -6.23011,-29.07386 -3.46123,-6.92228 -4.15341,-30.45891 -4.15341,-30.45891" />
  <path
     id="path3944"
     style="fill:none;stroke:#962613;stroke-width:1.41332459"
     inkscape:connector-curvature="0"
     d="m 323.67329,270.51073 c 0,0 -4.15341,-17.99869 -7.61464,-26.3055 -3.46123,-8.30682 -6.92246,-13.15258 -6.92246,-13.15258" />
  <path
     id="path3982"
     style="fill:none;stroke:#000000;stroke-width:1.76665568px"
     d="m 158.80898,267.20709 c 0,0 -1.61787,-1.07858 7.0108,-2.15709 8.6287,-1.0786 12.94305,1.61789 12.94305,1.61789 0,0 0.009,11.72299 -8.08952,11.32514 -10.24837,-0.50348 -11.86451,-10.78596 -11.86451,-10.78596 z"
     sodipodi:nodetypes="cscsc"
     inkscape:connector-curvature="0" />
  <path
     id="path4082"
     style="fill:none;stroke:#800000;stroke-width:1.76665568px"
     inkscape:connector-curvature="0"
     d="m 56.357083,163.41606 c 0,0 0,-23.61312 7.719932,-29.97131 7.719932,-6.35749 24.521181,-19.07281 24.521181,-19.07281" />
  <path
     id="path4084"
     style="fill:none;stroke:#800000;stroke-width:1.76665568px"
     inkscape:connector-curvature="0"
     d="m 61.353186,192.47755 c 0,0 19.072814,-14.53163 24.06715,-28.15519 4.995219,-13.62339 6.357487,-24.97698 6.357487,-24.97698" />
  <path
     id="path4086"
     style="fill:none;stroke:#800000;stroke-width:1.76665568px"
     inkscape:connector-curvature="0"
     d="m 93.142388,232.89863 c 0,0 5.903457,-8.62817 8.628172,-17.71072 2.72471,-9.0822 3.63295,-16.34793 3.63295,-16.34793" />
  <path
     id="path4090"
     style="fill:none;stroke:#961b0b;stroke-width:1.76665568px"
     d="m 292.49182,196.57619 c 0,0 -7.26573,22.25103 -0.90822,41.32385 3.13634,9.40903 0.4541,31.78743 0.4541,31.78743 0,0 -2.27051,-11.35288 -4.54119,-20.88894 -2.27051,-9.5364 -8.62817,-24.52118 -8.62817,-24.52118"
     sodipodi:nodetypes="cscsc"
     inkscape:connector-curvature="0" />
  <path
     id="path4092"
     style="fill:none;stroke:#961b0b;stroke-width:1.76665568px"
     inkscape:connector-curvature="0"
     d="m 301.13076,230.17798 c 0,0 4.54119,37.23757 2.27051,45.86592 -2.27051,8.62817 -12.71515,15.89389 -12.71515,15.89389 0,0 7.26572,-13.16918 7.71993,-21.34296 0.45412,-8.17397 -4.54101,-26.7931 -4.54101,-26.7931" />
  <path
     id="path4096"
     style="fill:none;stroke:#961b0b;stroke-width:1.76665568px"
     d="m 276.15025,261.96012 c 0,0 7.26573,14.07742 4.99522,20.88894 -2.2705,6.81169 -3.37095,19.54274 -0.90822,22.25102 4.54119,4.99522 9.0822,6.8117 9.0822,6.8117 0,0 -5.90346,-7.26573 -5.44942,-13.16918 0.4541,-5.90346 5.90345,-15.8939 5.90345,-24.06715 0,-8.17397 -1.36232,-21.797 -1.36232,-21.797"
     sodipodi:nodetypes="csscssc"
     inkscape:connector-curvature="0" />
  <path
     id="path4098"
     style="fill:#800000;stroke-width:1.76665568;stroke-opacity:0"
     inkscape:connector-curvature="0"
     d="m 293.85214,248.3392 c 0,0 -1.36234,16.34793 -2.72471,21.34297 -1.36234,4.99522 -6.35749,23.15909 -6.35749,26.7931 0,3.63295 13.16918,-19.52684 14.07742,-24.97698 0.90822,-5.44942 -4.54119,-25.43101 -4.54119,-25.43101" />
</svg>
